<svg viewBox="0 0 120 120" xmlns="http://www.w3.org/2000/svg">
  <defs>
    <linearGradient id="leaf" x1="20%" y1="100%" x2="85%" y2="0%">
      <stop offset="0%" stop-color="#1B3F7A" />
      <stop offset="45%" stop-color="#2A7F7C" />
      <stop offset="100%" stop-color="#43B05C" />
    </linearGradient>
    <linearGradient id="orbit" x1="0%" y1="80%" x2="100%" y2="10%">
      <stop offset="0%" stop-color="#1B3F7A" />
      <stop offset="60%" stop-color="#2A7F7C" />
      <stop offset="100%" stop-color="#43B05C" />
    </linearGradient>
    <linearGradient id="circuit" x1="50%" y1="100%" x2="50%" y2="0%">
      <stop offset="0%" stop-color="#17356B" />
      <stop offset="100%" stop-color="#2A7F7C" />
    </linearGradient>
  </defs>
  <ellipse cx="60" cy="55" rx="42" ry="18" fill="none" stroke="url(#orbit)" stroke-width="3.4" transform="rotate(-24 60 55)" />
  <path d="M60 74c-3-16-14-24-27-25 1 15 11 25 27 27z" fill="url(#leaf)" opacity="0.92" />
  <path d="M60 74C60 52 68 30 60 12c-9 18-1 40 0 62z" fill="url(#leaf)" />
  <path d="M60 70c4-17 16-27 30-28-1 16-13 27-30 30z" fill="url(#leaf)" opacity="0.85" />
  <path d="M60 62v46M60 96h14v-8h8M60 88h-12v-10h-9M60 104h-16" fill="none" stroke="url(#circuit)" stroke-width="3.4" stroke-linecap="round" stroke-linejoin="round" />
  <circle cx="82" cy="88" r="3.4" fill="#43B05C" />
  <circle cx="39" cy="78" r="3.4" fill="#1B3F7A" />
  <circle cx="44" cy="104" r="3.4" fill="#17356B" />
  <path d="M55 108h10" stroke="url(#circuit)" stroke-width="4" stroke-linecap="round" />
</svg>
